<?xml version="1.0" standalone="no"?>
<!DOCTYPE svg PUBLIC "-//W3C//DTD SVG 20010904//EN"
 "http://www.w3.org/TR/2001/REC-SVG-20010904/DTD/svg10.dtd">
<svg version="1.0" xmlns="http://www.w3.org/2000/svg"
 width="178.000000pt" height="178.000000pt" viewBox="0 0 178.000000 178.000000"
 preserveAspectRatio="xMidYMid meet">
<metadata>
Created by potrace 1.14, written by Peter Selinger 2001-2017
</metadata>
<g transform="translate(0.000000,178.000000) scale(0.100000,-0.100000)"
fill="#000000" stroke="none">
<path d="M676 1683 c-140 -29 -254 -91 -364 -197 -160 -152 -234 -329 -236
-559 -1 -94 -4 -121 -16 -130 -54 -40 -66 -112 -26 -152 l24 -24 -19 -38 c-16
-32 -17 -39 -5 -51 11 -12 21 -12 51 -2 40 13 40 13 49 -15 4 -15 -2 -24 -24
-37 -17 -9 -35 -29 -41 -45 -13 -35 12 -72 62 -88 31 -11 35 -16 42 -64 10
-62 38 -87 87 -76 26 6 37 1 70 -29 81 -73 173 -101 330 -99 114 1 218 20 350
62 l85 27 20 -30 c11 -17 33 -37 49 -45 78 -37 180 65 128 129 l-20 24 96 58
c171 105 272 201 333 318 20 38 24 60 24 136 0 61 4 96 13 107 16 18 19 80 7
115 -6 17 -4 22 9 22 29 0 19 49 -19 87 -19 19 -35 45 -35 56 -1 35 -35 102
-65 125 -20 16 -42 22 -79 23 l-51 0 -45 71 c-76 119 -206 226 -345 285 -120
51 -302 66 -439 36z m302 -29 c143 -29 263 -93 362 -193 83 -83 130 -157 130
-205 0 -43 -38 -112 -87 -157 -63 -59 -252 -151 -407 -198 -200 -61 -447 -66
-555 -11 -46 23 -107 89 -129 139 -33 75 -9 290 44 393 28 54 8 40 -49 -34
-106 -141 -147 -254 -154 -433 -4 -91 -2 -130 10 -163 12 -34 12 -40 1 -32
-27 23 -36 81 -32 204 4 97 10 137 32 201 121 357 474 563 834 489z m651 -423
c11 -11 24 -37 30 -58 15 -53 -4 -68 -114 -94 -50 -11 -105 -27 -124 -35 l-33
-15 5 -57 c13 -120 -27 -161 -141 -144 -55 8 -71 7 -90 -5 -21 -13 -23 -19
-16 -56 18 -92 3 -147 -48 -173 -40 -21 -71 -17 -155 16 -110 44 -136 41 -201
-23 -52 -52 -53 -52 -116 -52 -53 0 -68 4 -99 28 -37 28 -50 51 -22 41 26 -10
80 5 126 35 24 16 76 36 114 45 68 17 72 16 115 -3 61 -28 129 -27 165 1 30
23 55 74 55 110 0 18 16 33 68 64 37 23 79 44 94 48 15 3 35 18 45 32 10 14
46 55 80 91 35 37 73 81 85 99 14 21 36 36 63 44 48 14 75 36 75 62 0 23 15
23 39 -1z m86 -171 c32 -34 34 -32 -70 -50 -38 -6 -101 -24 -139 -40 -39 -17
-71 -28 -73 -27 -1 2 -4 19 -5 37 l-3 35 80 18 c44 10 100 26 125 36 25 11 48
19 51 20 3 1 18 -12 34 -29z m-7 -92 c7 -7 12 -28 12 -48 0 -40 -17 -60 -87
-104 l-43 -26 0 -65 c0 -61 -2 -66 -26 -75 -14 -6 -46 -10 -72 -10 -72 -1
-122 -23 -162 -72 -61 -75 -97 -108 -119 -108 -27 0 -27 30 -2 86 22 48 41 62
181 139 178 97 245 162 256 247 6 41 10 48 28 48 12 0 27 -5 34 -12z m-493
-178 c3 -5 0 -19 -8 -30 -13 -18 -15 -19 -21 -5 -10 27 -7 45 8 45 8 0 18 -4
21 -10z m475 -32 c0 -89 -196 -277 -400 -384 -89 -46 -86 -46 -97 -9 l-11 34
52 11 c67 14 102 39 158 115 46 61 48 63 105 70 93 11 116 30 132 107 17 78
61 119 61 56z m-1581 -27 c9 -6 11 -18 6 -40 -5 -23 -12 -31 -29 -31 -46 0
-64 53 -23 70 28 11 29 11 46 1z m325 -94 c18 -9 17 -10 -10 -22 -16 -7 -45
-29 -64 -50 -58 -61 -107 -79 -145 -52 -25 19 -8 64 42 111 37 34 40 35 98 29
33 -3 69 -10 79 -16z m-256 -28 c-4 -13 -99 -51 -107 -44 -2 3 6 16 19 30 24
26 96 37 88 14z m739 -31 c85 -34 169 -42 197 -19 14 12 16 7 16 -49 0 -35 7
-87 16 -116 10 -28 14 -59 11 -68 -6 -15 -10 -15 -35 -2 -16 8 -34 22 -41 30
-8 9 -24 16 -36 16 -12 0 -28 -7 -36 -16 -21 -26 -66 -44 -108 -44 -49 0 -91
34 -158 127 -43 61 -45 65 -27 78 11 7 38 31 61 54 23 23 46 41 52 41 6 0 45
-14 88 -32z m635 -89 c-107 -103 -355 -256 -400 -247 -9 2 23 22 72 46 111 53
263 153 336 220 82 76 76 62 -8 -19z m-476 -182 l26 -24 -84 -27 c-46 -15
-126 -34 -178 -43 -87 -15 -98 -15 -132 0 -30 12 -38 22 -38 41 0 51 67 60
144 21 77 -39 150 -29 206 28 31 31 27 31 56 4z m-717 -91 c6 -7 39 -26 74
-42 55 -25 76 -28 187 -32 143 -5 244 10 385 58 83 28 111 31 89 11 -13 -13
-158 -57 -244 -74 -183 -37 -317 -30 -426 23 -57 28 -109 70 -87 70 6 0 16 -6
22 -14z m913 -35 c-4 -36 -31 -61 -65 -61 -36 0 -77 34 -77 64 0 19 6 21 73
21 70 0 72 -1 69 -24z"/>
<path d="M1210 1415 c0 -8 5 -15 10 -15 6 0 10 7 10 15 0 8 -4 15 -10 15 -5 0
-10 -7 -10 -15z"/>
<path d="M1100 1280 c0 -5 5 -10 10 -10 6 0 10 5 10 10 0 6 -4 10 -10 10 -5 0
-10 -4 -10 -10z"/>
<path d="M1360 1270 c0 -5 5 -10 10 -10 6 0 10 5 10 10 0 6 -4 10 -10 10 -5 0
-10 -4 -10 -10z"/>
<path d="M720 1151 c0 -6 5 -13 10 -16 6 -3 10 1 10 9 0 9 -4 16 -10 16 -5 0
-10 -4 -10 -9z"/>
<path d="M1080 1050 c0 -5 5 -10 10 -10 6 0 10 5 10 10 0 6 -4 10 -10 10 -5 0
-10 -4 -10 -10z"/>
<path d="M470 1000 c0 -5 7 -10 15 -10 8 0 15 5 15 10 0 6 -7 10 -15 10 -8 0
-15 -4 -15 -10z"/>
</g>
</svg>
