<svg width="302.000000" height="302.000000" viewBox="0 0 302 302" fill="none" xmlns="http://www.w3.org/2000/svg" xmlns:xlink="http://www.w3.org/1999/xlink">
	<desc>
			Created with Pixso.
	</desc>
	<defs>
		<clipPath id="clip72_2748">
			<rect id="pic" width="302.000000" height="302.000000" fill="white" fill-opacity="0"/>
		</clipPath>
	</defs>
	<rect id="pic" width="302.000000" height="302.000000" fill="#FFFFFF" fill-opacity="0"/>
	<g clip-path="url(#clip72_2748)">
		<path id="path20" d="M139.705 129.074C131.422 122.982 127.984 113.414 131.583 107.083C131.777 106.734 131.997 106.386 132.242 106.06C136.857 99.7764 147.688 99.889 156.433 106.312C165.173 112.743 168.518 123.045 163.896 129.327C162.676 130.988 161.024 132.197 159.091 132.966C153.705 135.113 146.138 133.799 139.705 129.074ZM194.404 54.6559C147.875 20.4518 90.2295 19.8434 65.6436 53.2924C63.2715 56.5173 61.2949 59.9425 59.707 63.524C44.7598 97.1179 63.3398 144.872 105.381 175.771C120.391 186.798 136.555 194.335 152.391 198.359C160.22 200.348 167.974 201.48 175.463 201.754C199.8 202.64 221.404 194.458 234.136 177.133C235.871 174.774 237.395 172.311 238.709 169.753C256.069 136.056 237.645 86.4362 194.404 54.6559Z" fill="#F5AF41" fill-opacity="1.000000" fill-rule="nonzero"/>
		<path id="path24" d="M181.494 197.846C180.318 197.846 179.135 197.825 177.945 197.781C176.94 197.745 175.934 197.693 174.92 197.625C174.874 194.705 174.89 191.791 175.145 189.31C177.591 189.574 180.016 189.749 182.416 189.837C183.605 189.88 184.787 189.901 185.964 189.901C204.893 189.901 221.943 184.281 234.124 173.01C233.529 173.935 232.903 174.848 232.245 175.743C227.756 181.851 222.105 186.778 215.588 190.524C205.606 195.408 193.958 197.846 181.494 197.846ZM147.409 192.236C133.998 187.914 120.521 181.097 107.863 171.798C75.4473 147.973 56.9795 114.129 57.0742 84.4786C57.5225 77.3426 59.1279 70.5168 61.9688 64.2209C62.2031 64.2794 62.4443 64.322 62.6914 64.3467C58.9736 83.7785 64.3848 106.153 77.4102 126.813C75.4639 133.148 76.3828 138.703 80.2139 142.46C82.7725 144.97 86.2363 146.23 89.9639 146.23C90.7344 146.23 91.5156 146.177 92.3018 146.069C98.21 152.411 104.903 158.394 112.332 163.854C113.479 164.697 114.634 165.52 115.795 166.323C115.981 169.922 116.766 173.124 119.08 175.505C121.54 178.033 125.425 179.262 130.941 179.262C131.209 179.262 131.481 179.259 131.755 179.253C133.267 179.221 134.676 178.768 135.885 177.945C140.578 180.165 145.305 182.078 150.029 183.68C149.215 185.944 148.249 188.909 147.409 192.236Z" fill="#CC8145" fill-opacity="1.000000" fill-rule="nonzero"/>
		<path id="path28" d="M170.383 128.863C169.317 128.737 168.241 128.565 167.159 128.348C170.372 121.043 166.597 110.873 157.821 104.423C152.994 100.877 147.547 99.1083 142.62 99.1083C138.829 99.1083 135.345 100.157 132.693 102.246C131.897 100.667 131.223 99.0724 130.675 97.4764C133.916 94.5446 138.372 93.0694 143.237 93.0694C148.882 93.0694 155.085 95.0551 160.597 99.0551C171.611 107.052 175.83 120.169 170.383 128.863Z" fill="#CC8145" fill-opacity="1.000000" fill-rule="nonzero"/>
		<path id="path32" d="M162.518 127.149C157.483 125.558 152.401 123.007 147.634 119.503C142.47 115.707 138.214 111.181 135.079 106.375C136.932 104.611 139.586 103.738 142.578 103.738C146.502 103.738 151.006 105.241 155.042 108.207C162.352 113.581 165.535 121.853 162.518 127.149Z" fill="#BA73C9" fill-opacity="1.000000" fill-rule="nonzero"/>
		<path id="path36" d="M163.897 129.328L163.901 129.328L163.897 129.328ZM142.577 103.739C139.029 103.739 135.957 104.965 134.132 107.45C132.357 109.864 132.025 113.18 133.195 116.787C134.456 120.67 137.262 124.361 141.096 127.18C148.78 132.829 158.16 133.167 162.004 127.937C165.851 122.706 162.726 113.857 155.041 108.207C151.006 105.241 146.5 103.739 142.577 103.739ZM153.516 136.279C148.588 136.279 143.14 134.511 138.313 130.965C133.693 127.567 130.289 123.047 128.729 118.237C127.079 113.151 127.653 108.332 130.348 104.669C135.725 97.351 148.05 97.2423 157.822 104.423C167.593 111.605 171.169 123.4 165.789 130.719C163.066 134.422 158.566 136.279 153.516 136.279ZM120.759 30.9476C97.6758 30.9476 78.8047 39.3549 67.5391 54.6819C43.7617 87.0312 61.3623 140.502 106.771 173.879C152.183 207.255 208.47 208.091 232.246 175.743C256.022 143.393 238.423 89.922 193.013 56.5449C170.903 40.293 145.602 31.2051 121.771 30.9534C121.434 30.9495 121.095 30.9476 120.759 30.9476ZM179.028 204.172C178.674 204.172 178.321 204.171 177.965 204.167C153.156 203.904 126.887 194.492 103.991 177.663C81.0947 160.834 64.2686 138.571 56.6143 114.974C48.8691 91.1024 51.4053 68.7009 63.7539 51.8999C76.1035 35.0988 96.7119 25.9746 121.82 26.2568C146.628 26.52 172.898 35.9321 195.793 52.7598C218.69 69.5876 235.515 91.8517 243.17 115.451C250.916 139.322 248.38 161.722 236.031 178.523C223.856 195.087 203.642 204.172 179.028 204.172Z" fill="#6D184E" fill-opacity="1.000000" fill-rule="nonzero"/>
		<path id="path40" d="M195.938 121.921C186.449 134.828 164.2 134.593 146.242 121.394C131.158 110.307 123.905 93.6025 127.591 80.8889C127.85 80.2022 132.776 67.5599 142.141 78.2227C151.767 89.182 153.586 91.0864 165.326 87.5947C177.065 84.1049 169.925 105.622 181.779 107.47C193.634 109.318 199.836 111.02 195.938 121.921ZM195.429 52.2814C172.996 35.7946 148.05 26.9255 125.283 25.7078L125.296 25.6984C94.3086 21.6063 75.8945 32.513 67.0166 43.4216C59.0557 53.1989 58.7607 62.9799 63.9424 61.9498C65.7695 61.5858 67.3359 61.507 68.6875 61.6215C68.5508 62.2669 68.4131 62.9105 68.293 63.5803C62.7959 94.278 95.8643 100.102 83.3311 119.795C70.7969 139.487 86.7617 149.284 99.5264 140.808L99.6152 140.75C105.301 137.036 113.056 139.288 115.963 145.426C117.401 148.464 118.541 152.119 118.411 155.938C118.017 167.598 115.852 177.249 131.705 176.905C136.381 176.805 138.448 171.202 137.236 166.653C134.497 156.362 147.92 153.914 153.132 160.787C154.374 162.424 155.274 164.148 155.62 165.786C156.162 170.713 155.418 176.38 153.28 181.726C148.061 194.787 140.904 223.103 161.994 225.399C172.728 226.566 172.949 214.671 172.685 202.776C172.432 191.3 171.725 179.825 179.572 180.079C195.553 180.596 197.234 188.544 212.105 177.649C226.975 166.754 234.801 159.463 241.131 162.779C247.462 166.096 247.531 141.011 247.531 141.011C247.274 110.799 228.374 76.4966 195.429 52.2814Z" fill="#FF33BB" fill-opacity="1.000000" fill-rule="nonzero"/>
		<path id="path44" d="M105.01 87.8318C104.206 87.8318 103.424 87.5812 102.759 87.1052C101.915 86.5015 101.358 85.6047 101.188 84.5817L99.6094 75.0396C99.2588 72.9275 100.692 70.9242 102.805 70.5743C103.02 70.5396 103.233 70.5223 103.446 70.5223C104.252 70.5223 105.032 70.7713 105.698 71.2488C106.544 71.8525 107.1 72.7478 107.269 73.7708L108.85 83.3145C109.019 84.3374 108.78 85.3651 108.177 86.2083C107.571 87.0516 106.676 87.6096 105.653 87.7782C105.438 87.8145 105.223 87.8318 105.01 87.8318Z" fill="#D32B9A" fill-opacity="1.000000" fill-rule="nonzero"/>
		<path id="path48" d="M146.97 66.4153C145.965 66.4153 145.017 66.035 144.288 65.337L137.3 58.6495C135.753 57.1691 135.699 54.7067 137.18 53.1603C137.897 52.4116 138.863 51.9857 139.898 51.9637C139.933 51.962 139.967 51.962 139.998 51.962C141.002 51.962 141.943 52.3457 142.669 53.0403L149.657 59.7278C151.203 61.2083 151.258 63.6707 149.777 65.217C149.059 65.9657 148.094 66.3916 147.056 66.4136C147.027 66.4153 146.999 66.4153 146.97 66.4153Z" fill="#D32B9A" fill-opacity="1.000000" fill-rule="nonzero"/>
		<path id="path52" d="M193.85 100.601C192.4 100.316 190.823 100.057 189.131 99.7928C184.98 99.1461 183.158 96.0845 182.038 92.5304C182.193 91.2673 182.966 90.1035 184.193 89.5056C184.738 89.2416 185.316 89.1166 185.885 89.1166C187.325 89.1166 188.712 89.9189 189.383 91.2979L193.614 99.9972C193.71 100.194 193.788 100.397 193.85 100.601Z" fill="#D32B9A" fill-opacity="1.000000" fill-rule="nonzero"/>
		<path id="path56" d="M124.19 138.522C124.072 138.522 123.951 138.517 123.833 138.507C123.771 138.501 123.712 138.493 123.651 138.486C123.541 138.236 123.43 137.991 123.314 137.749C122.592 136.221 121.568 134.934 120.351 133.92L121.191 124.656C121.373 122.64 123.07 121.125 125.06 121.125C125.174 121.125 125.291 121.13 125.407 121.14C126.44 121.234 127.374 121.724 128.039 122.52C128.703 123.317 129.017 124.325 128.924 125.358L128.05 134.99C127.956 136.023 127.465 136.958 126.669 137.622C125.966 138.208 125.096 138.522 124.19 138.522Z" fill="#D32B9A" fill-opacity="1.000000" fill-rule="nonzero"/>
		<path id="path60" d="M97.3467 119.554C96.0537 119.554 94.79 118.911 94.0537 117.739C92.9141 115.927 93.4619 113.525 95.2754 112.386L103.464 107.239C104.104 106.835 104.818 106.644 105.523 106.644C106.816 106.644 108.081 107.287 108.818 108.459C109.957 110.271 109.409 112.673 107.597 113.812L99.4062 118.96C98.7676 119.362 98.0518 119.554 97.3467 119.554Z" fill="#D32B9A" fill-opacity="1.000000" fill-rule="nonzero"/>
		<path id="path64" d="M170.41 171.919C169.119 171.919 167.854 171.277 167.117 170.104C165.979 168.292 166.526 165.891 168.338 164.751L176.527 159.603C177.168 159.201 177.881 159.009 178.588 159.009C179.88 159.009 181.144 159.652 181.88 160.825C183.02 162.637 182.473 165.039 180.66 166.178L172.47 171.325C171.831 171.728 171.116 171.919 170.41 171.919Z" fill="#D32B9A" fill-opacity="1.000000" fill-rule="nonzero"/>
		<path id="path68" d="M198.356 149.212C197.829 149.212 197.306 149.104 196.809 148.887C195.857 148.474 195.124 147.714 194.743 146.75L191.199 137.75C190.818 136.786 190.838 135.729 191.251 134.779C191.666 133.828 192.425 133.095 193.39 132.714C193.851 132.533 194.332 132.443 194.813 132.443C195.338 132.443 195.863 132.55 196.36 132.766C197.311 133.181 198.044 133.939 198.424 134.904L201.969 143.906C202.349 144.869 202.332 145.925 201.917 146.874C201.503 147.827 200.744 148.559 199.779 148.939C199.318 149.121 198.836 149.212 198.356 149.212Z" fill="#D32B9A" fill-opacity="1.000000" fill-rule="nonzero"/>
		<path id="path72" d="M179.729 74.2732C179.367 74.2732 179.003 74.2214 178.646 74.1179L169.353 71.4349C167.296 70.8397 166.107 68.6839 166.7 66.6267C167.192 64.9286 168.748 63.8223 170.435 63.8223C170.789 63.8223 171.149 63.8708 171.507 63.9744L180.802 66.6591C182.857 67.2542 184.048 69.41 183.454 71.4656C183.166 72.4634 182.508 73.2867 181.599 73.788C181.017 74.1099 180.376 74.2732 179.729 74.2732Z" fill="#D32B9A" fill-opacity="1.000000" fill-rule="nonzero"/>
		<path id="path76" d="M214.703 121.624C214.347 121.624 213.985 121.575 213.628 121.471L204.335 118.787C203.338 118.498 202.514 117.839 202.012 116.932C201.877 116.685 201.77 116.43 201.69 116.168C202.257 115.563 202.791 114.921 203.29 114.243C203.657 113.215 203.937 112.267 204.128 111.395C204.536 111.251 204.972 111.174 205.415 111.174C205.77 111.174 206.132 111.222 206.49 111.327L215.781 114.011C217.839 114.606 219.028 116.761 218.434 118.819C217.943 120.517 216.388 121.624 214.703 121.624Z" fill="#D32B9A" fill-opacity="1.000000" fill-rule="nonzero"/>
		<path id="path80" d="M223.075 162.98C223.024 162.98 222.973 162.979 222.919 162.977C221.885 162.936 220.927 162.494 220.222 161.733C219.518 160.972 219.151 159.982 219.192 158.946C219.233 157.909 219.675 156.951 220.435 156.247L227.537 149.679C228.263 149.01 229.192 148.648 230.176 148.648C230.226 148.648 230.275 148.648 230.325 148.651C231.361 148.69 232.319 149.132 233.024 149.894C234.478 151.465 234.382 153.927 232.81 155.38L225.707 161.948C224.985 162.616 224.055 162.98 223.075 162.98Z" fill="#D32B9A" fill-opacity="1.000000" fill-rule="nonzero"/>
		<path id="path84" d="M204.758 97.6349C203.925 97.6349 203.117 97.3685 202.439 96.8608C201.608 96.2375 201.071 95.3293 200.924 94.3038C200.621 92.1842 202.098 90.2137 204.217 89.9105L213.791 88.5381C213.979 88.5113 214.165 88.4979 214.35 88.4979C215.184 88.4979 215.991 88.766 216.67 89.2754C217.499 89.897 218.039 90.8052 218.185 91.8307C218.332 92.8578 218.07 93.8799 217.449 94.7094C216.827 95.5388 215.919 96.0783 214.894 96.2241L205.317 97.5964C205.132 97.6232 204.944 97.6349 204.758 97.6349Z" fill="#D32B9A" fill-opacity="1.000000" fill-rule="nonzero"/>
		<path id="path88" d="M141.817 150.394C141.796 150.394 141.774 150.394 141.751 150.394C140.714 150.376 139.747 149.956 139.025 149.21C137.537 147.672 137.578 145.209 139.118 143.721L146.069 136.996C146.823 136.269 147.797 135.907 148.77 135.907C149.785 135.907 150.801 136.302 151.56 137.089C152.281 137.833 152.669 138.816 152.651 139.852C152.635 140.889 152.215 141.858 151.469 142.578L144.516 149.302C143.786 150.007 142.829 150.394 141.817 150.394Z" fill="#D32B9A" fill-opacity="1.000000" fill-rule="nonzero"/>
		<path id="path92" d="M114.902 60.8481C113.677 60.8481 112.47 60.2697 111.716 59.1925L106.168 51.2697C104.939 49.5172 105.367 47.091 107.121 45.8632C107.797 45.3887 108.573 45.1618 109.342 45.1618C110.567 45.1618 111.774 45.7385 112.527 46.8157L118.076 54.7385C119.306 56.4927 118.876 58.9189 117.123 60.1467C116.446 60.6195 115.671 60.8481 114.902 60.8481Z" fill="#D32B9A" fill-opacity="1.000000" fill-rule="nonzero"/>
		<path id="path96" d="M99.4502 38.1218C99.3174 39.4541 98.7041 40.6746 97.8848 41.7338C91.2402 50.323 99.5117 69.8123 88.6064 70.7578C77.6084 71.7089 78.3691 46.9438 85.6406 38.897C94.8242 28.7318 100.062 31.9956 99.4502 38.1218Z" fill="#FF5CC9" fill-opacity="1.000000" fill-rule="nonzero"/>
		<path id="path100" d="M222.372 121.159C222.372 121.159 223.022 135.209 208.228 142.925C193.432 150.64 221.8 155.474 230.095 140.322C238.389 125.17 224.136 112.565 222.372 121.159Z" fill="#FF5CC9" fill-opacity="1.000000" fill-rule="nonzero"/>
		<path id="path104" d="M245.055 145.587C242.661 115.122 223.058 81.6008 190.297 57.5168C187.343 55.3468 184.351 53.3057 181.318 51.3825C180.171 50.6549 179.02 49.9493 177.864 49.2567C175.416 51.1909 171.976 52.2391 168.239 52.2391C165.641 52.2391 162.897 51.7307 160.246 50.6641C153.029 47.7517 148.921 41.6635 150.091 36.266C149.374 36.021 148.659 35.7797 147.944 35.5476C137.218 32.0438 126.529 30.0157 116.257 29.4686L116.271 29.4612C111.46 28.8275 106.938 28.5346 102.693 28.5346C100.749 28.5346 98.8633 28.5954 97.0352 28.7133C101.69 27.7259 106.829 27.1714 112.46 27.1714C116.322 27.1714 120.419 27.433 124.748 27.993C124.881 28.0261 125.019 28.0446 125.158 28.0519C148.347 29.2935 172.808 38.5687 194.037 54.1733C225.323 77.1686 244.922 110.45 245.184 141.004C245.18 142.54 245.134 144.081 245.055 145.587Z" fill="#FF99DD" fill-opacity="1.000000" fill-rule="nonzero"/>
		<path id="path108" d="M195.938 121.92L195.942 121.92L195.938 121.92ZM129.82 81.6338C126.381 93.6998 133.693 109.256 147.633 119.502C164.388 131.816 185.018 132.366 193.842 120.802C194.912 117.695 195.04 115.525 194.236 114.172C192.793 111.742 187.576 110.75 181.419 109.79C174.044 108.642 172.456 101.564 171.297 96.3956C170.654 93.527 169.987 90.5589 168.691 89.7981C168.126 89.4675 167.219 89.4825 165.996 89.8469C152.695 93.8013 150.086 90.8275 140.378 79.7722C138.83 78.0101 136.555 75.9832 134.524 76.3588C132.173 76.789 130.364 80.2362 129.82 81.6338ZM174.634 133.753C165.036 133.753 154.345 130.264 144.853 123.287C129.322 111.873 121.297 94.1696 125.336 80.2362C125.353 80.178 125.371 80.1216 125.394 80.0634C125.853 78.8423 128.407 72.7031 133.679 71.7394C137.051 71.1233 140.49 72.7839 143.905 76.6744C153.263 87.3278 154.239 88.4399 164.658 85.344C167.178 84.5945 169.334 84.7316 171.067 85.7479C174.124 87.5419 175.017 91.5189 175.881 95.368C177.154 101.047 178.212 104.537 182.14 105.15C190.012 106.376 195.774 107.569 198.273 111.772C199.887 114.488 199.848 117.963 198.149 122.711C198.072 122.925 197.965 123.128 197.83 123.312C192.715 130.272 184.218 133.753 174.634 133.753ZM144.999 154.566C148.623 154.566 152.479 156.039 155.004 159.368C156.531 161.384 157.512 163.379 157.918 165.3C157.935 165.376 157.946 165.452 157.953 165.529C158.557 171.006 157.672 177.067 155.463 182.598C151.06 193.615 147.639 209.349 152.498 217.435C154.475 220.723 157.664 222.564 162.248 223.064C164.424 223.299 166.043 222.9 167.196 221.839C170.723 218.6 170.497 209.278 170.296 201.052C170.082 192.178 169.879 183.795 173.825 179.883C175.34 178.379 177.299 177.654 179.649 177.732C185.271 177.914 189.256 178.984 192.457 179.844C198.44 181.451 201.735 182.336 210.717 175.755C212.939 174.128 214.972 172.604 216.935 171.131C228.494 162.467 235.485 157.226 242.158 160.666C243.734 159.145 245.156 150.013 245.185 141.004C244.922 110.451 225.324 77.1685 194.037 54.173C172.81 38.5696 148.347 29.2932 125.159 28.0515C125.019 28.0439 124.882 28.0252 124.749 27.9933C90.3877 23.5392 70.8184 37.9948 64.4951 51.7571C62.2363 56.6752 62.7988 59.3635 63.1582 59.6847C63.1533 59.6753 63.2705 59.6884 63.4844 59.6453C65.4043 59.2639 67.2217 59.1417 68.8848 59.2808C69.5566 59.3372 70.1719 59.6791 70.5742 60.2201C70.9756 60.7611 71.125 61.4487 70.9854 62.108L70.9717 62.1757C70.8447 62.773 70.7158 63.3723 70.6045 63.996C68.0039 78.5173 74.666 87.1042 80.543 94.6805C86.6328 102.529 92.3848 109.944 85.3125 121.056C80.4473 128.698 79.7715 135.447 83.5029 139.109C86.8574 142.398 93.0498 142.29 98.2275 138.853L98.335 138.782C101.588 136.657 105.627 136.05 109.413 137.117C113.237 138.196 116.397 140.859 118.085 144.421C119.985 148.432 120.884 152.334 120.76 156.017C120.721 157.153 120.665 158.27 120.611 159.362C120.336 164.969 120.096 169.811 122.447 172.229C124.068 173.895 127.081 174.655 131.654 174.558C132.637 174.537 133.423 174.114 134.061 173.267C135.168 171.793 135.533 169.378 134.97 167.258C133.63 162.231 135.45 157.812 139.721 155.727C141.265 154.971 143.1 154.566 144.999 154.566ZM163.399 227.826C162.862 227.826 162.31 227.795 161.741 227.732C155.681 227.073 151.217 224.422 148.473 219.854C141.251 207.836 148.658 186.965 151.101 180.855C153.013 176.069 153.793 170.859 153.301 166.164C153.024 164.969 152.319 163.602 151.262 162.206C148.981 159.198 144.519 158.608 141.781 159.947C139.523 161.049 138.737 163.159 139.506 166.049C140.438 169.542 139.772 173.483 137.815 176.089C136.32 178.077 134.167 179.201 131.756 179.253C125.806 179.378 121.66 178.155 119.081 175.504C115.305 171.621 115.604 165.553 115.921 159.13C115.974 158.063 116.027 156.969 116.065 155.858C116.164 152.93 115.416 149.758 113.841 146.431C112.734 144.095 110.656 142.348 108.139 141.638C105.658 140.939 103.021 141.33 100.899 142.716L100.836 142.757C93.6982 147.497 85.2217 147.372 80.2148 142.46C74.7822 137.132 75.2061 128.187 81.3506 118.534C86.6475 110.211 82.7422 105.178 76.832 97.5585C70.7822 89.7605 63.2783 80.0878 65.8369 64.0223C65.3711 64.0786 64.8916 64.1538 64.4004 64.2533C62.29 64.6722 60.4238 63.9753 59.2803 62.3409C57.0283 59.1249 58.1143 52.8617 62.0459 46.3863C64.6943 42.0261 70.9795 33.8751 83.3262 28.2694C95.1963 22.8817 109.421 21.2323 125.603 23.3701C125.617 23.372 125.634 23.3739 125.647 23.3757C149.667 24.7151 174.934 34.3033 196.819 50.3895C229.275 74.2435 249.605 108.959 249.881 140.991C249.879 141.218 249.86 146.003 249.309 151.19C248.229 161.304 246.136 163.782 244.432 164.81C243.086 165.621 241.529 165.638 240.043 164.859C235.976 162.727 229.869 167.306 219.753 174.889C217.778 176.369 215.736 177.901 213.491 179.543C202.695 187.456 197.89 186.166 191.24 184.38C188.118 183.541 184.576 182.59 179.497 182.426C178.135 182.383 177.494 182.857 177.132 183.216C174.624 185.705 174.819 193.799 174.992 200.939C175.225 210.613 175.468 220.617 170.375 225.297C168.547 226.978 166.204 227.826 163.399 227.826Z" fill="#6D184E" fill-opacity="1.000000" fill-rule="nonzero"/>
		<path id="path112" d="M185.813 108.149C185.744 108.137 185.674 108.124 185.603 108.111C185.674 108.124 185.744 108.137 185.813 108.149Z" fill="#6D184E" fill-opacity="1.000000" fill-rule="nonzero"/>
		<path id="path116" d="M184.855 107.977C184.747 107.956 184.634 107.937 184.523 107.92C184.634 107.937 184.747 107.956 184.855 107.977Z" fill="#6D184E" fill-opacity="1.000000" fill-rule="nonzero"/>
		<path id="path120" d="M182.84 107.639C182.49 107.583 182.138 107.526 181.777 107.471C182.138 107.526 182.49 107.583 182.84 107.639Z" fill="#6D184E" fill-opacity="1.000000" fill-rule="nonzero"/>
		<path id="path124" d="M140.023 76.1363C139.917 76.0468 139.812 75.9603 139.707 75.8785C139.812 75.9603 139.917 76.0468 140.023 76.1363Z" fill="#6D184E" fill-opacity="1.000000" fill-rule="nonzero"/>
		<path id="path128" d="M142.104 78.1819C141.856 77.8997 141.61 77.6389 141.368 77.3889C141.61 77.6389 141.856 77.8997 142.104 78.1819Z" fill="#6D184E" fill-opacity="1.000000" fill-rule="nonzero"/>
		<path id="path132" d="M197.065 117.111C197.065 117.087 197.068 117.063 197.07 117.039C197.068 117.063 197.065 117.087 197.065 117.111Z" fill="#6D184E" fill-opacity="1.000000" fill-rule="nonzero"/>
		<path id="path136" d="M197.072 115.75C197.07 115.733 197.067 115.716 197.067 115.698C197.067 115.716 197.07 115.733 197.072 115.75Z" fill="#6D184E" fill-opacity="1.000000" fill-rule="nonzero"/>
		<path id="path140" d="M192.765 110.106C192.729 110.09 192.693 110.073 192.657 110.056C192.693 110.073 192.729 110.09 192.765 110.106Z" fill="#6D184E" fill-opacity="1.000000" fill-rule="nonzero"/>
		<path id="path144" d="M190.068 109.125C189.987 109.103 189.907 109.079 189.826 109.056C189.907 109.079 189.987 109.103 190.068 109.125Z" fill="#6D184E" fill-opacity="1.000000" fill-rule="nonzero"/>
		<path id="path148" d="M191.502 109.59C191.441 109.569 191.381 109.547 191.319 109.526C191.381 109.547 191.441 109.569 191.502 109.59Z" fill="#6D184E" fill-opacity="1.000000" fill-rule="nonzero"/>
		<path id="path152" d="M186.74 108.33C186.613 108.304 186.482 108.279 186.354 108.253C186.482 108.279 186.613 108.304 186.74 108.33Z" fill="#6D184E" fill-opacity="1.000000" fill-rule="nonzero"/>
		<path id="path156" d="M139.257 75.5378C139.146 75.4589 139.036 75.3831 138.928 75.3104C139.036 75.3831 139.146 75.4589 139.257 75.5378Z" fill="#6D184E" fill-opacity="1.000000" fill-rule="nonzero"/>
		<path id="path160" d="M196.862 118.618C196.865 118.598 196.87 118.576 196.875 118.555C196.87 118.576 196.865 118.598 196.862 118.618Z" fill="#6D184E" fill-opacity="1.000000" fill-rule="nonzero"/>
		<path id="path164" d="M197.093 116.413L197.093 116.403L197.093 116.413Z" fill="#6D184E" fill-opacity="1.000000" fill-rule="nonzero"/>
		<path id="path168" d="M141.207 77.2269C140.964 76.9806 140.722 76.7482 140.483 76.5342C140.722 76.7482 140.964 76.9806 141.207 77.2269Z" fill="#6D184E" fill-opacity="1.000000" fill-rule="nonzero"/>
		<path id="path172" d="M136.298 74.1205C136.23 74.1049 136.165 74.0909 136.099 74.0785C136.165 74.0909 136.23 74.1049 136.298 74.1205Z" fill="#6D184E" fill-opacity="1.000000" fill-rule="nonzero"/>
		<path id="path176" d="M134.745 73.9763C134.789 73.9748 134.831 73.9732 134.874 73.9716C134.831 73.9732 134.789 73.9748 134.745 73.9763ZM135.186 73.9732C135.125 73.9717 135.065 73.9701 135.007 73.9701C135.008 73.9701 135.01 73.9701 135.011 73.9701C135.037 73.9701 135.063 73.9716 135.091 73.9716C135.123 73.9716 135.152 73.9717 135.186 73.9732ZM135.002 73.9701C135.003 73.9701 135.005 73.9701 135.007 73.9701C135.005 73.9701 135.003 73.9701 135.002 73.9701Z" fill="#6D184E" fill-opacity="1.000000" fill-rule="nonzero"/>
		<path id="path180" d="M196.689 119.425C196.692 119.409 196.697 119.394 196.7 119.378C196.697 119.394 196.692 119.409 196.689 119.425Z" fill="#6D184E" fill-opacity="1.000000" fill-rule="nonzero"/>
		<path id="path184" d="M138.425 74.9949C138.319 74.9313 138.215 74.8724 138.111 74.8167C138.215 74.8724 138.319 74.9313 138.425 74.9949Z" fill="#6D184E" fill-opacity="1.000000" fill-rule="nonzero"/>
		<path id="path188" d="M137.716 74.6224C137.633 74.5836 137.549 74.5464 137.465 74.5092C137.549 74.5464 137.633 74.5836 137.716 74.6224Z" fill="#6D184E" fill-opacity="1.000000" fill-rule="nonzero"/>
		<path id="path192" d="M136.856 74.2743C136.812 74.2603 136.767 74.2463 136.722 74.2324C136.767 74.2463 136.812 74.2603 136.856 74.2743Z" fill="#6D184E" fill-opacity="1.000000" fill-rule="nonzero"/>
		<path id="path196" d="M196.988 117.847C196.991 117.823 196.994 117.799 196.997 117.776C196.994 117.799 196.991 117.823 196.988 117.847Z" fill="#6D184E" fill-opacity="1.000000" fill-rule="nonzero"/>
		<path id="path200" d="M130.888 174.566C126.743 174.566 123.976 173.801 122.446 172.23C120.096 169.811 120.335 164.969 120.611 159.362C120.665 158.271 120.721 157.154 120.759 156.017C120.882 152.334 119.984 148.433 118.085 144.422C116.397 140.86 113.236 138.196 109.413 137.118C108.187 136.773 106.936 136.603 105.69 136.603C103.094 136.603 100.534 137.344 98.334 138.781L98.2266 138.853C95.5674 140.618 92.6416 141.505 89.9697 141.505C87.4385 141.505 85.1338 140.709 83.5029 139.108C79.7705 135.448 80.4473 128.698 85.3115 121.056C92.3838 109.945 86.6318 102.53 80.542 94.6806C74.665 87.1042 68.0039 78.5173 70.6045 63.9965C70.7158 63.3732 70.8438 62.7742 70.9707 62.1752L70.9844 62.1093C71.125 61.4495 70.9746 60.7621 70.5732 60.2221C70.1719 59.6804 69.5557 59.3367 68.8848 59.2811C68.4414 59.2447 67.9893 59.2256 67.5254 59.2256C66.2471 59.2256 64.8936 59.3662 63.4844 59.6458C63.2695 59.6891 63.1523 59.6752 63.1572 59.6857C62.7979 59.3645 62.2363 56.6752 64.4951 51.7585C65.6201 49.3089 67.166 46.8349 69.1406 44.4512C66.917 50.0884 67.5889 54.3471 70.5762 54.3453C70.8018 54.3453 71.041 54.3228 71.2949 54.2725C72.6162 54.0085 73.8018 53.8957 74.8682 53.8957C75.2764 53.8957 75.667 53.9113 76.041 53.9426C75.9033 54.5884 75.7666 55.2325 75.6465 55.9044C70.1484 86.6007 103.217 92.4254 90.6836 112.118C81.2295 126.971 87.9883 136.195 97.3584 136.193C100.411 136.193 103.742 135.214 106.88 133.13C106.908 133.111 106.938 133.09 106.968 133.073C108.846 131.846 110.949 131.269 113.028 131.269C115.68 131.269 118.292 132.205 120.351 133.92L120.316 134.288C120.225 135.321 120.537 136.33 121.202 137.127C121.827 137.875 122.691 138.354 123.653 138.486C124.928 141.37 125.884 144.747 125.765 148.259C125.405 158.879 123.578 167.83 135.228 169.085C135.27 170.659 134.856 172.208 134.06 173.267C133.422 174.114 132.636 174.537 131.653 174.558C131.395 174.563 131.14 174.566 130.888 174.566Z" fill="#D32B9A" fill-opacity="1.000000" fill-rule="nonzero"/>
		<path id="path204" d="M123.653 138.485C122.691 138.355 121.826 137.875 121.201 137.126C120.538 136.329 120.224 135.321 120.317 134.288L120.351 133.919C121.568 134.934 122.592 136.22 123.314 137.748C123.43 137.99 123.543 138.236 123.653 138.485Z" fill="#B42583" fill-opacity="1.000000" fill-rule="nonzero"/>
		<path id="path208" d="M130.899 176.914C115.926 176.914 118.022 167.397 118.411 155.938C118.541 152.119 117.4 148.463 115.962 145.426C114.015 141.315 109.895 138.947 105.676 138.947C103.597 138.947 101.492 139.522 99.6152 140.749C99.585 140.769 99.5557 140.788 99.5254 140.808C96.3887 142.891 93.0586 143.87 90.0049 143.87C80.6357 143.87 73.877 134.646 83.3311 119.795C95.8643 100.101 62.7949 94.2779 68.292 63.5801C68.4131 62.9108 68.5508 62.2663 68.6875 61.6201C68.3135 61.5898 67.9229 61.572 67.5146 61.572C66.4482 61.572 65.2627 61.6859 63.9414 61.9476C63.6885 61.9993 63.4482 62.0242 63.2217 62.0242C57.8164 62.0242 59.9932 48.0667 73.207 37.2495C71.3691 39.7473 70.0254 42.2076 69.1406 44.4508C67.166 46.8347 65.6201 49.3075 64.4951 51.7572C62.2354 56.6744 62.7979 59.3627 63.1572 59.6849C63.1523 59.676 63.2695 59.6884 63.4834 59.6457C64.8936 59.3662 66.2471 59.2238 67.5244 59.2238C67.9883 59.2238 68.4414 59.2433 68.8838 59.2808C69.5557 59.3359 70.1709 59.6795 70.5732 60.2207C70.9746 60.762 71.125 61.4492 70.9844 62.1078L70.9707 62.1755C70.8438 62.7737 70.7158 63.3719 70.6045 63.995C68.0039 78.5169 74.665 87.105 80.542 94.6802C86.6318 102.53 92.3838 109.945 85.3115 121.055C80.4463 128.698 79.7705 135.447 83.502 139.108C85.1338 140.708 87.4375 141.504 89.9697 141.504C92.6416 141.504 95.5674 140.617 98.2266 138.853L98.334 138.782C100.533 137.343 103.094 136.603 105.69 136.603C106.936 136.603 108.187 136.772 109.413 137.117C113.236 138.196 116.397 140.859 118.084 144.42C119.984 148.431 120.883 152.334 120.759 156.017C120.72 157.153 120.664 158.27 120.611 159.362C120.335 164.969 120.096 169.811 122.447 172.229C123.977 173.8 126.743 174.566 130.889 174.566C131.139 174.566 131.393 174.563 131.654 174.558C132.636 174.537 133.423 174.114 134.06 173.267C134.857 172.207 135.269 170.659 135.228 169.085C135.956 169.163 136.737 169.212 137.574 169.229C137.598 173.077 135.521 176.823 131.704 176.905C131.431 176.911 131.163 176.914 130.899 176.914Z" fill="#6D184E" fill-opacity="1.000000" fill-rule="nonzero"/>
		<path id="path212" d="M199.294 118.362C199.688 115.727 199.348 113.582 198.272 111.773C195.772 107.57 190.01 106.377 182.141 105.149C178.21 104.537 177.152 101.046 175.879 95.3683C175.016 91.52 174.123 87.5418 171.067 85.7474C170.068 85.1627 168.927 84.8679 167.66 84.8679C166.728 84.8679 165.725 85.0264 164.656 85.3453C161.45 86.2969 159.138 86.8513 157.201 86.8513C152.843 86.8513 150.381 84.0475 143.905 76.6744C141.157 73.5438 138.394 71.8568 135.66 71.6389C136.733 69.5849 138.983 66.2877 142.385 66.2877C144.366 66.2877 146.739 67.4076 149.495 70.5462C156.286 78.2814 159.191 81.5049 164.441 81.5049C166.63 81.5049 169.226 80.9442 172.678 79.9172C173.558 79.6561 174.33 79.5359 175.013 79.5359C180.259 79.5359 180.201 86.6991 182.038 92.5309C181.949 93.2487 182.062 93.9985 182.401 94.6954L186.633 103.394C187.086 104.326 187.876 105.026 188.856 105.366C189.271 105.508 189.699 105.58 190.125 105.58C190.707 105.58 191.283 105.448 191.822 105.186C192.755 104.733 193.454 103.943 193.793 102.963C194.061 102.189 194.078 101.372 193.849 100.601C201.594 102.125 205.679 104.339 204.128 111.395C202.984 111.797 202.044 112.728 201.684 113.979C201.472 114.705 201.479 115.459 201.689 116.167C200.946 116.962 200.146 117.693 199.294 118.362Z" fill="#D32B9A" fill-opacity="1.000000" fill-rule="nonzero"/>
		<path id="path216" d="M190.126 105.58C189.699 105.58 189.271 105.509 188.856 105.366C187.876 105.027 187.087 104.328 186.633 103.395L182.4 94.6965C182.062 93.9988 181.95 93.2491 182.039 92.5315C183.158 96.0844 184.979 99.1456 189.131 99.793C190.824 100.057 192.399 100.317 193.849 100.602C194.078 101.372 194.06 102.19 193.792 102.964C193.455 103.944 192.756 104.734 191.821 105.187C191.283 105.448 190.706 105.58 190.126 105.58Z" fill="#B42583" fill-opacity="1.000000" fill-rule="nonzero"/>
		<path id="path220" d="M201.691 116.167C201.479 115.46 201.473 114.704 201.684 113.978C202.044 112.727 202.984 111.797 204.128 111.394C203.936 112.268 203.658 113.213 203.289 114.242C202.792 114.92 202.259 115.562 201.691 116.167Z" fill="#B42583" fill-opacity="1.000000" fill-rule="nonzero"/>
		<path id="path224" d="M196.471 120.254L196.471 120.252C196.552 119.97 196.624 119.693 196.688 119.427C196.691 119.409 196.696 119.395 196.699 119.38C196.761 119.121 196.815 118.866 196.861 118.618C196.865 118.598 196.87 118.576 196.875 118.556C196.919 118.312 196.957 118.077 196.988 117.846C196.991 117.823 196.994 117.799 196.997 117.776C197.012 117.663 197.024 117.55 197.037 117.438C197.048 117.328 197.058 117.22 197.065 117.112C197.058 117.22 197.048 117.328 197.037 117.438C197.048 117.328 197.058 117.22 197.065 117.112C197.066 117.087 197.068 117.063 197.069 117.04C197.084 116.825 197.092 116.616 197.094 116.412C197.094 116.409 197.094 116.407 197.094 116.404C197.094 116.385 197.094 116.368 197.094 116.349C197.092 116.246 197.092 116.145 197.087 116.046C197.084 115.946 197.079 115.847 197.073 115.75C197.069 115.732 197.068 115.715 197.066 115.699C197.053 115.508 197.032 115.323 197.006 115.142C197.004 115.136 197.002 115.13 197.002 115.123C196.999 115.114 196.997 115.103 196.996 115.092C196.98 114.996 196.965 114.902 196.945 114.81C196.927 114.715 196.905 114.624 196.883 114.533L196.883 114.53C196.696 113.79 196.392 113.138 195.975 112.559C195.439 111.817 194.719 111.195 193.827 110.664C193.765 110.626 193.7 110.588 193.635 110.552C193.534 110.494 193.429 110.438 193.324 110.383C193.304 110.372 193.283 110.361 193.263 110.35C193.141 110.285 193.017 110.226 192.888 110.164C192.847 110.146 192.806 110.125 192.764 110.106C192.729 110.091 192.693 110.073 192.655 110.056C192.493 109.982 192.325 109.912 192.156 109.841C192.106 109.822 192.059 109.802 192.009 109.782C191.926 109.75 191.843 109.717 191.758 109.684C191.673 109.653 191.588 109.621 191.502 109.59C191.442 109.568 191.381 109.546 191.319 109.526C191.151 109.466 190.979 109.408 190.805 109.352C190.734 109.33 190.664 109.306 190.592 109.284C190.419 109.231 190.245 109.177 190.067 109.126C189.985 109.104 189.906 109.078 189.824 109.057C189.738 109.033 189.648 109.008 189.559 108.984C189.471 108.959 189.38 108.936 189.291 108.912C189.201 108.889 189.11 108.865 189.02 108.841C188.84 108.798 188.66 108.752 188.478 108.708C188.376 108.685 188.273 108.661 188.17 108.638C187.991 108.597 187.81 108.556 187.626 108.515C187.606 108.51 187.586 108.507 187.566 108.503C187.472 108.482 187.378 108.462 187.282 108.443C187.103 108.405 186.923 108.368 186.739 108.33C186.611 108.305 186.481 108.28 186.353 108.255C186.174 108.219 185.995 108.184 185.812 108.151C185.744 108.138 185.673 108.124 185.603 108.112C185.532 108.099 185.46 108.087 185.39 108.073C185.214 108.041 185.036 108.008 184.855 107.977C184.746 107.956 184.635 107.938 184.523 107.919C184.468 107.911 184.413 107.9 184.359 107.892C184.193 107.864 184.032 107.836 183.862 107.806C183.655 107.773 183.443 107.737 183.231 107.702C183.102 107.682 182.973 107.66 182.841 107.639C182.491 107.583 182.138 107.526 181.778 107.471C170.809 105.761 176.104 87.2131 167.657 87.2131C166.977 87.2131 166.203 87.334 165.325 87.596C161.87 88.6224 159.277 89.1826 157.088 89.1826C151.84 89.1826 148.933 85.9592 142.141 78.2241C142.128 78.2099 142.117 78.1958 142.104 78.1832C141.854 77.9008 141.61 77.6403 141.366 77.3907C141.313 77.3358 141.26 77.2793 141.208 77.226C140.963 76.9796 140.722 76.7489 140.483 76.5339C140.438 76.4931 140.391 76.4523 140.344 76.4115C140.236 76.3173 140.129 76.2247 140.023 76.1368C139.917 76.0474 139.812 75.9626 139.706 75.8795C139.669 75.8497 139.63 75.8167 139.59 75.7869C139.479 75.7006 139.366 75.619 139.256 75.5389C139.145 75.4604 139.034 75.3851 138.927 75.3114C138.863 75.2706 138.803 75.2314 138.741 75.1921C138.636 75.1246 138.529 75.0587 138.424 74.996C138.319 74.9332 138.214 74.8735 138.112 74.8186C138.063 74.7935 138.018 74.7731 137.971 74.748C137.885 74.704 137.801 74.6617 137.717 74.6224C137.633 74.5833 137.549 74.5456 137.466 74.5095C137.401 74.4812 137.334 74.4514 137.27 74.4263C137.13 74.3698 136.993 74.3212 136.856 74.2756C136.811 74.2615 136.766 74.2474 136.722 74.2333C136.684 74.2223 136.646 74.2113 136.61 74.2019C136.572 74.1909 136.536 74.1815 136.5 74.1721C136.433 74.1533 136.365 74.1375 136.296 74.1203C136.23 74.1061 136.164 74.092 136.097 74.0795C136.003 74.0607 135.907 74.0434 135.812 74.0292C135.685 74.012 135.556 73.9963 135.43 73.9885C135.349 73.9822 135.267 73.9759 135.186 73.9743C135.152 73.9728 135.121 73.9712 135.09 73.9712C135.062 73.9712 135.036 73.9712 135.01 73.9712C135.008 73.9712 135.006 73.9712 135.005 73.9712C135.003 73.9712 135.002 73.9712 135 73.9712C134.958 73.9712 134.915 73.9712 134.874 73.9728C134.83 73.9744 134.788 73.9759 134.744 73.9775C134.809 73.7233 134.87 73.4659 134.943 73.2132C134.995 73.0751 135.233 72.4552 135.66 71.6392C138.393 71.8573 141.156 73.5444 143.904 76.6752C150.381 84.0494 152.843 86.8522 157.199 86.8522C159.138 86.8522 161.449 86.2982 164.657 85.3456C165.724 85.027 166.727 84.8685 167.659 84.8685C168.927 84.8685 170.068 85.1636 171.066 85.749C174.121 87.5427 175.015 91.5209 175.879 95.3689C177.152 101.047 178.21 104.538 182.14 105.15C190.01 106.378 195.773 107.57 198.271 111.773C199.347 113.582 199.688 115.728 199.295 118.363C198.405 119.061 197.462 119.692 196.471 120.254ZM196.688 119.427C196.624 119.693 196.552 119.97 196.471 120.252C196.552 119.97 196.624 119.693 196.688 119.427ZM196.861 118.618C196.815 118.866 196.761 119.121 196.699 119.38C196.761 119.121 196.815 118.866 196.861 118.618ZM197.094 116.412C197.092 116.616 197.084 116.825 197.069 117.04C197.084 116.825 197.092 116.616 197.094 116.412Z" fill="#6D184E" fill-opacity="1.000000" fill-rule="nonzero"/>
		<path id="path228" d="M197.07 117.04C197.084 116.825 197.092 116.615 197.094 116.413C197.092 116.615 197.084 116.825 197.07 117.04Z" fill="#6D184E" fill-opacity="1.000000" fill-rule="nonzero"/>
		<path id="path232" d="M197.066 115.699C197.052 115.509 197.033 115.323 197.005 115.142C197.033 115.323 197.052 115.509 197.066 115.699ZM197.005 115.142C197.004 115.136 197.002 115.13 197.002 115.124C197.002 115.13 197.004 115.136 197.005 115.142Z" fill="#6D184E" fill-opacity="1.000000" fill-rule="nonzero"/>
		<path id="path236" d="M196.998 117.775C197.012 117.662 197.025 117.55 197.037 117.438C197.025 117.55 197.012 117.662 196.998 117.775ZM197.037 117.438C197.048 117.329 197.059 117.219 197.066 117.111C197.059 117.219 197.048 117.329 197.037 117.438Z" fill="#6D184E" fill-opacity="1.000000" fill-rule="nonzero"/>
		<path id="path240" d="M196.995 115.091C196.98 114.997 196.963 114.903 196.944 114.809C196.963 114.903 196.98 114.997 196.995 115.091ZM196.944 114.809C196.926 114.716 196.906 114.625 196.883 114.534C196.906 114.625 196.926 114.716 196.944 114.809Z" fill="#6D184E" fill-opacity="1.000000" fill-rule="nonzero"/>
		<path id="path244" d="M192.656 110.056C192.494 109.983 192.325 109.912 192.155 109.842C192.325 109.912 192.494 109.983 192.656 110.056Z" fill="#6D184E" fill-opacity="1.000000" fill-rule="nonzero"/>
		<path id="path248" d="M193.828 110.663C193.765 110.625 193.702 110.588 193.637 110.551C193.702 110.588 193.765 110.625 193.828 110.663ZM193.637 110.551C193.534 110.493 193.431 110.437 193.325 110.382C193.431 110.437 193.534 110.493 193.637 110.551Z" fill="#6D184E" fill-opacity="1.000000" fill-rule="nonzero"/>
		<path id="path252" d="M193.263 110.349C193.141 110.286 193.017 110.224 192.887 110.165C193.017 110.224 193.141 110.285 193.263 110.349ZM192.887 110.165C192.848 110.145 192.807 110.125 192.764 110.107C192.807 110.125 192.848 110.145 192.887 110.165Z" fill="#6D184E" fill-opacity="1.000000" fill-rule="nonzero"/>
		<path id="path256" d="M196.471 120.252C196.553 119.968 196.623 119.694 196.688 119.425C196.623 119.694 196.553 119.968 196.471 120.252Z" fill="#6D184E" fill-opacity="1.000000" fill-rule="nonzero"/>
		<path id="path260" d="M196.875 118.555C196.92 118.313 196.957 118.078 196.987 117.848C196.957 118.076 196.92 118.313 196.875 118.555Z" fill="#6D184E" fill-opacity="1.000000" fill-rule="nonzero"/>
		<path id="path264" d="M196.698 119.381C196.762 119.12 196.815 118.867 196.862 118.618C196.815 118.867 196.762 119.12 196.698 119.381Z" fill="#6D184E" fill-opacity="1.000000" fill-rule="nonzero"/>
		<path id="path268" d="M137.467 74.5088C137.4 74.4808 137.333 74.4514 137.27 74.425C137.333 74.4514 137.4 74.4808 137.467 74.5088Z" fill="#6D184E" fill-opacity="1.000000" fill-rule="nonzero"/>
		<path id="path272" d="M136.099 74.0781C136.003 74.0594 135.908 74.0424 135.814 74.0284C135.908 74.0424 136.003 74.0594 136.099 74.0781Z" fill="#6D184E" fill-opacity="1.000000" fill-rule="nonzero"/>
		<path id="path276" d="M136.723 74.233C136.685 74.2222 136.647 74.2113 136.61 74.2004C136.647 74.2113 136.685 74.2222 136.723 74.233ZM136.61 74.2004C136.574 74.1911 136.537 74.1802 136.5 74.1709C136.537 74.1802 136.574 74.1911 136.61 74.2004Z" fill="#6D184E" fill-opacity="1.000000" fill-rule="nonzero"/>
		<path id="path280" d="M138.925 75.3114C138.864 75.2712 138.803 75.231 138.742 75.1923C138.803 75.231 138.864 75.2712 138.925 75.3114Z" fill="#6D184E" fill-opacity="1.000000" fill-rule="nonzero"/>
		<path id="path284" d="M138.111 74.8168C138.063 74.7921 138.018 74.7719 137.971 74.7471C138.018 74.7719 138.063 74.7921 138.111 74.8168Z" fill="#6D184E" fill-opacity="1.000000" fill-rule="nonzero"/>
		<path id="path288" d="M192.009 109.783C191.928 109.749 191.843 109.716 191.758 109.684C191.843 109.716 191.928 109.749 192.009 109.783ZM191.758 109.684C191.673 109.653 191.588 109.621 191.502 109.59C191.588 109.621 191.673 109.653 191.758 109.684Z" fill="#6D184E" fill-opacity="1.000000" fill-rule="nonzero"/>
		<path id="path296" d="M139.708 75.879C139.669 75.8496 139.631 75.8157 139.592 75.7863C139.631 75.8157 139.669 75.8496 139.708 75.879Z" fill="#6D184E" fill-opacity="1.000000" fill-rule="nonzero"/>
		<path id="path300" d="M196.882 114.531C196.697 113.789 196.392 113.138 195.975 112.56C196.392 113.138 196.697 113.789 196.882 114.531ZM195.975 112.56C195.438 111.816 194.719 111.196 193.828 110.663C194.719 111.196 195.438 111.816 195.975 112.56Z" fill="#6D184E" fill-opacity="1.000000" fill-rule="nonzero"/>
		<path id="path304" d="M141.367 77.3896C141.313 77.3344 141.262 77.2791 141.208 77.2253C141.262 77.2791 141.313 77.3344 141.367 77.3896Z" fill="#6D184E" fill-opacity="1.000000" fill-rule="nonzero"/>
		<path id="path308" d="M135.432 73.9874C135.349 73.9811 135.267 73.9749 135.186 73.9734C135.267 73.9749 135.349 73.9811 135.432 73.9874Z" fill="#6D184E" fill-opacity="1.000000" fill-rule="nonzero"/>
		<path id="path312" d="M197.093 116.349C197.092 116.246 197.092 116.145 197.087 116.045C197.092 116.145 197.092 116.246 197.093 116.349ZM197.087 116.045C197.084 115.946 197.077 115.847 197.071 115.75C197.079 115.847 197.084 115.946 197.087 116.045Z" fill="#6D184E" fill-opacity="1.000000" fill-rule="nonzero"/>
		<path id="path316" d="M188.171 108.638C187.99 108.596 187.81 108.556 187.625 108.514C187.81 108.556 187.99 108.596 188.171 108.638Z" fill="#6D184E" fill-opacity="1.000000" fill-rule="nonzero"/>
		<path id="path320" d="M189.019 108.842C188.84 108.797 188.66 108.752 188.478 108.708C188.66 108.752 188.84 108.797 189.019 108.842Z" fill="#6D184E" fill-opacity="1.000000" fill-rule="nonzero"/>
		<path id="path324" d="M140.484 76.5328C140.438 76.4912 140.392 76.4512 140.344 76.4111C140.392 76.4512 140.438 76.4912 140.484 76.5328Z" fill="#6D184E" fill-opacity="1.000000" fill-rule="nonzero"/>
		<path id="path328" d="M190.592 109.283C190.421 109.23 190.246 109.177 190.068 109.125C190.246 109.177 190.421 109.23 190.592 109.283Z" fill="#6D184E" fill-opacity="1.000000" fill-rule="nonzero"/>
		<path id="path332" d="M191.32 109.524C191.153 109.464 190.98 109.406 190.806 109.351C190.98 109.406 191.153 109.464 191.32 109.524Z" fill="#6D184E" fill-opacity="1.000000" fill-rule="nonzero"/>
		<path id="path336" d="M189.825 109.057C189.738 109.033 189.649 109.007 189.56 108.983C189.649 109.007 189.738 109.033 189.825 109.057ZM189.56 108.983C189.471 108.959 189.381 108.935 189.291 108.913C189.381 108.935 189.471 108.959 189.56 108.983Z" fill="#6D184E" fill-opacity="1.000000" fill-rule="nonzero"/>
		<path id="path340" d="M187.284 108.442C187.104 108.404 186.925 108.366 186.74 108.329C186.925 108.366 187.104 108.404 187.284 108.442Z" fill="#6D184E" fill-opacity="1.000000" fill-rule="nonzero"/>
		<path id="path344" d="M184.36 107.891C184.195 107.863 184.032 107.835 183.863 107.806C184.032 107.835 184.195 107.863 184.36 107.891Z" fill="#6D184E" fill-opacity="1.000000" fill-rule="nonzero"/>
		<path id="path348" d="M183.232 107.703C183.101 107.681 182.973 107.66 182.841 107.638C182.973 107.66 183.101 107.681 183.232 107.703Z" fill="#6D184E" fill-opacity="1.000000" fill-rule="nonzero"/>
		<path id="path352" d="M185.39 108.073C185.213 108.042 185.036 108.008 184.854 107.977C185.036 108.008 185.213 108.042 185.39 108.073Z" fill="#6D184E" fill-opacity="1.000000" fill-rule="nonzero"/>
		<path id="path356" d="M186.353 108.254C186.174 108.22 185.994 108.184 185.812 108.15C185.994 108.184 186.174 108.22 186.353 108.254Z" fill="#6D184E" fill-opacity="1.000000" fill-rule="nonzero"/>
		<path id="path360" d="M163.396 223.13C163.031 223.13 162.647 223.108 162.246 223.064C160.968 222.925 159.8 222.682 158.734 222.331C162.624 222.022 166.967 219.701 166.785 210.813C166.47 195.521 157.473 172.344 184.682 172.344C185.805 172.344 186.989 172.383 188.238 172.464C188.31 172.468 188.524 172.48 188.561 172.483L188.559 172.485C198.304 173.1 202.312 175.709 206.789 175.709C208.649 175.709 210.59 175.26 213.054 174.03C212.297 174.593 211.52 175.168 210.716 175.756C205.26 179.752 201.904 180.996 198.769 180.996C196.74 180.996 194.805 180.475 192.456 179.845C189.254 178.985 185.269 177.914 179.648 177.732C179.534 177.729 179.421 177.727 179.307 177.727C177.108 177.727 175.265 178.453 173.823 179.883C169.877 183.796 170.081 192.179 170.295 201.053C170.495 209.278 170.721 218.6 167.196 221.84C166.253 222.705 165.005 223.13 163.396 223.13ZM230.26 161.936C236.069 157.669 240.45 154.84 244.133 154.37C243.59 157.599 242.89 159.958 242.156 160.666C240.742 159.938 239.317 159.599 237.835 159.599C235.499 159.599 233.025 160.443 230.26 161.936Z" fill="#D32B9A" fill-opacity="1.000000" fill-rule="nonzero"/>
		<path id="path364" d="M163.025 225.232C157.349 225.232 152.818 221.545 152.818 221.545C152.818 221.545 155.062 222.37 157.754 222.37C158.075 222.37 158.404 222.358 158.733 222.331C159.8 222.681 160.97 222.925 162.247 223.064C162.648 223.108 163.033 223.129 163.397 223.129C165.006 223.129 166.255 222.704 167.196 221.839C170.721 218.6 170.495 209.278 170.296 201.052C170.081 192.178 169.878 183.796 173.824 179.883C175.267 178.453 177.109 177.727 179.308 177.727C179.422 177.727 179.534 177.729 179.649 177.732C185.271 177.914 189.256 178.984 192.457 179.844C194.807 180.475 196.742 180.995 198.768 180.995C201.905 180.995 205.262 179.752 210.717 175.756C211.519 175.168 212.297 174.593 213.055 174.03C214.854 173.134 216.93 171.823 219.456 169.971C223.555 166.97 227.116 164.242 230.261 161.935C233.026 160.442 235.499 159.598 237.836 159.598C239.318 159.598 240.743 159.938 242.157 160.666C242.892 159.958 243.592 157.598 244.134 154.37C244.494 154.323 244.847 154.3 245.194 154.3C245.644 154.3 246.082 154.339 246.513 154.419C245.768 159.042 244.476 163.082 242.237 163.081C241.892 163.081 241.523 162.985 241.132 162.779C240.083 162.231 238.996 161.973 237.843 161.973C232.021 161.973 224.516 168.556 212.104 177.649C206.133 182.025 202.286 183.363 198.784 183.363C193.711 183.363 189.363 180.551 180.322 180.114C180.322 180.114 179.878 179.879 179.221 179.879C177.73 179.879 175.143 181.089 174.113 188.99C172.629 200.381 175.704 220.859 167.965 224.215C166.277 224.946 164.608 225.232 163.025 225.232Z" fill="#6D184E" fill-opacity="1.000000" fill-rule="nonzero"/>
		<path id="path368" d="M103.968 69.1233C102.421 69.3787 101.374 70.8397 101.631 72.3864L103.21 81.9297C103.467 83.4764 104.928 84.5218 106.474 84.2664C108.022 84.011 109.067 82.5484 108.811 81.0017L107.232 71.46C106.977 69.9117 105.515 68.8663 103.968 69.1233Z" fill="#0DF4FF" fill-opacity="1.000000" fill-rule="nonzero"/>
		<path id="path372" d="M104.433 70.1279C104.337 70.1279 104.238 70.1359 104.139 70.1519C103.666 70.2299 103.252 70.488 102.973 70.8784C102.694 71.2671 102.583 71.7435 102.661 72.2151L104.241 81.7585C104.402 82.7351 105.327 83.3947 106.306 83.237C106.778 83.1589 107.193 82.9008 107.472 82.5105C107.751 82.1202 107.86 81.6454 107.782 81.1722L106.204 71.6288C106.059 70.7525 105.296 70.1279 104.433 70.1279ZM106.009 85.348C104.146 85.348 102.496 83.9969 102.182 82.0994L100.602 72.556C100.433 71.5331 100.672 70.5056 101.276 69.6627C101.88 68.8199 102.775 68.2623 103.799 68.0918C105.912 67.7429 107.913 69.1768 108.264 71.2878L109.843 80.8312C110.012 81.8557 109.772 82.8817 109.169 83.7261C108.564 84.5689 107.669 85.125 106.646 85.2955C106.433 85.3305 106.22 85.348 106.009 85.348Z" fill="#6D184E" fill-opacity="1.000000" fill-rule="nonzero"/>
		<path id="path376" d="M138.928 51.3986C137.843 52.5312 137.882 54.3289 139.015 55.4122L146.003 62.101C147.135 63.1843 148.931 63.1452 150.016 62.0125C151.1 60.8799 151.061 59.0822 149.928 57.9989L142.939 51.3118C141.809 50.2267 140.011 50.2659 138.928 51.3986Z" fill="#0DF4FF" fill-opacity="1.000000" fill-rule="nonzero"/>
		<path id="path380" d="M139.681 52.1209C138.997 52.8354 139.021 53.9729 139.737 54.6584L146.724 61.3467C147.438 62.0306 148.577 62.005 149.262 61.2905C149.594 60.9443 149.771 60.4907 149.759 60.0098C149.749 59.5323 149.551 59.0854 149.207 58.7529L142.219 52.0646C141.872 51.7338 141.406 51.548 140.938 51.5667C140.458 51.577 140.012 51.7731 139.681 52.1209ZM147.964 63.9303C146.998 63.9303 146.031 63.5739 145.281 62.8542L138.293 56.166C136.746 54.6857 136.693 52.2233 138.172 50.6765C138.89 49.9279 139.854 49.5032 140.892 49.4794C141.922 49.4708 142.912 49.8392 143.663 50.5571L150.649 57.2454C151.399 57.9617 151.824 58.9286 151.847 59.9654C151.869 61.0023 151.486 61.9862 150.769 62.7349C150.008 63.5295 148.986 63.9303 147.964 63.9303Z" fill="#6D184E" fill-opacity="1.000000" fill-rule="nonzero"/>
		<path id="path384" d="M185.642 87.963C184.232 88.6492 183.646 90.3474 184.332 91.7567L188.564 100.455C189.249 101.865 190.947 102.452 192.358 101.767C193.769 101.081 194.354 99.3808 193.67 97.9716L189.438 89.2729C188.751 87.8636 187.053 87.2767 185.642 87.963Z" fill="#0DF4FF" fill-opacity="1.000000" fill-rule="nonzero"/>
		<path id="path388" d="M185.643 87.962L185.647 87.962L185.643 87.962ZM186.884 88.7191C186.614 88.7191 186.348 88.7806 186.099 88.9004L186.099 88.9019C185.667 89.1108 185.345 89.4763 185.187 89.9278C185.031 90.3824 185.061 90.8693 185.27 91.2993L189.502 99.998C189.935 100.889 191.012 101.26 191.9 100.827C192.792 100.394 193.163 99.3177 192.73 98.4269L188.497 89.7297C188.289 89.2982 187.923 88.9756 187.47 88.819C187.278 88.7514 187.08 88.7191 186.884 88.7191ZM191.122 103.094C189.682 103.094 188.296 102.291 187.625 100.912L183.393 92.2131C182.939 91.2808 182.877 90.2273 183.215 89.2474C183.554 88.2676 184.254 87.4782 185.187 87.0236C186.118 86.5706 187.171 86.506 188.152 86.8455C189.132 87.1833 189.921 87.8837 190.374 88.8174L194.607 97.5146C195.544 99.439 194.739 101.767 192.814 102.704C192.27 102.97 191.692 103.094 191.122 103.094Z" fill="#6D184E" fill-opacity="1.000000" fill-rule="nonzero"/>
		<path id="path392" d="M126.306 119.696C124.745 119.555 123.365 120.705 123.224 122.267L122.35 131.9C122.208 133.461 123.358 134.843 124.92 134.984C126.481 135.126 127.863 133.975 128.003 132.413L128.877 122.78C129.02 121.219 127.868 119.838 126.306 119.696Z" fill="#0DF4FF" fill-opacity="1.000000" fill-rule="nonzero"/>
		<path id="path396" d="M126.047 120.729C125.628 120.729 125.227 120.873 124.9 121.144C124.533 121.452 124.306 121.884 124.263 122.361L123.39 131.995C123.346 132.472 123.49 132.939 123.798 133.307C124.104 133.674 124.537 133.901 125.015 133.944C125.998 134.04 126.875 133.304 126.965 132.318L127.838 122.686C127.882 122.208 127.736 121.743 127.429 121.373C127.121 121.005 126.689 120.779 126.212 120.736C126.157 120.73 126.102 120.729 126.047 120.729ZM125.179 136.04C125.063 136.04 124.944 136.035 124.825 136.023C123.793 135.93 122.858 135.44 122.195 134.644C121.53 133.846 121.218 132.839 121.31 131.807L122.185 122.173C122.376 120.041 124.27 118.467 126.4 118.657C127.434 118.752 128.369 119.24 129.033 120.038C129.697 120.834 130.011 121.841 129.917 122.875L129.043 132.507C128.861 134.521 127.163 136.04 125.179 136.04Z" fill="#6D184E" fill-opacity="1.000000" fill-rule="nonzero"/>
		<path id="path400" d="M108.928 106.531C108.092 105.205 106.341 104.805 105.013 105.64L96.8232 110.787C95.4951 111.622 95.0967 113.373 95.9316 114.701C96.7646 116.028 98.5186 116.428 99.8447 115.594L108.034 110.447C109.361 109.611 109.762 107.859 108.928 106.531Z" fill="#FFD00D" fill-opacity="1.000000" fill-rule="nonzero"/>
		<path id="path404" d="M106.521 106.249C106.193 106.249 105.864 106.337 105.567 106.522L97.3779 111.67C96.9736 111.924 96.6904 112.323 96.585 112.791C96.4775 113.259 96.5596 113.74 96.8154 114.146C97.3408 114.982 98.4521 115.236 99.29 114.711L107.479 109.563C108.316 109.035 108.569 107.924 108.043 107.087C107.703 106.546 107.118 106.249 106.521 106.249ZM98.3408 117.071C97.0488 117.071 95.7842 116.428 95.0469 115.256C94.4951 114.378 94.3193 113.339 94.5479 112.327C94.7803 111.315 95.3896 110.454 96.2686 109.903L104.458 104.757C106.271 103.617 108.671 104.165 109.811 105.976C110.949 107.789 110.402 110.19 108.59 111.328L100.4 116.478C99.7607 116.88 99.0469 117.071 98.3408 117.071Z" fill="#6D184E" fill-opacity="1.000000" fill-rule="nonzero"/>
		<path id="path408" d="M181.99 158.897C181.157 157.57 179.404 157.171 178.076 158.005L169.887 163.152C168.561 163.987 168.159 165.738 168.995 167.066C169.828 168.394 171.581 168.794 172.909 167.96L181.097 162.811C182.425 161.977 182.824 160.225 181.99 158.897Z" fill="#0DF4FF" fill-opacity="1.000000" fill-rule="nonzero"/>
		<path id="path412" d="M179.582 158.612C179.248 158.612 178.921 158.707 178.631 158.889L170.441 164.036C170.035 164.291 169.754 164.689 169.646 165.157C169.54 165.625 169.621 166.104 169.877 166.51C170.132 166.916 170.53 167.2 170.998 167.306C171.464 167.413 171.944 167.331 172.352 167.076L180.541 161.929C181.379 161.402 181.633 160.291 181.106 159.453C180.851 159.047 180.453 158.765 179.984 158.659C179.852 158.628 179.717 158.612 179.582 158.612ZM171.404 169.439C171.114 169.439 170.823 169.408 170.533 169.341C169.522 169.111 168.661 168.5 168.11 167.622C167.559 166.745 167.381 165.704 167.611 164.692C167.843 163.681 168.453 162.82 169.331 162.269L177.521 157.122C178.398 156.568 179.438 156.393 180.449 156.624C181.461 156.854 182.321 157.465 182.874 158.343C184.012 160.155 183.464 162.556 181.652 163.696L173.462 168.843C172.837 169.237 172.126 169.439 171.404 169.439Z" fill="#6D184E" fill-opacity="1.000000" fill-rule="nonzero"/>
		<path id="path416" d="M194.765 131.203C193.307 131.776 192.59 133.425 193.164 134.884L196.709 143.885C197.283 145.344 198.932 146.059 200.391 145.486C201.85 144.911 202.566 143.263 201.991 141.804L198.447 132.804C197.872 131.345 196.224 130.629 194.765 131.203Z" fill="#FFD00D" fill-opacity="1.000000" fill-rule="nonzero"/>
		<path id="path420" d="M195.148 132.174C194.703 132.35 194.352 132.689 194.16 133.129C193.969 133.568 193.96 134.055 194.136 134.502L197.681 143.502C198.043 144.423 199.088 144.876 200.009 144.514C200.455 144.338 200.807 143.999 200.996 143.56C201.188 143.12 201.197 142.632 201.021 142.186L197.476 133.186C197.3 132.739 196.961 132.388 196.522 132.198C196.082 132.006 195.595 131.997 195.148 132.174ZM199.355 146.726C197.807 146.726 196.341 145.793 195.739 144.267L192.194 135.267C191.409 133.275 192.391 131.016 194.383 130.231C195.348 129.851 196.404 129.87 197.354 130.283C198.306 130.698 199.039 131.457 199.419 132.421L202.963 141.421C203.344 142.385 203.324 143.442 202.911 144.392C202.498 145.344 201.739 146.077 200.774 146.457C200.31 146.639 199.828 146.726 199.355 146.726Z" fill="#6D184E" fill-opacity="1.000000" fill-rule="nonzero"/>
		<path id="path424" d="M168.696 64.4333C168.262 65.9409 169.129 67.5137 170.635 67.9484L179.93 70.6331C181.435 71.0694 183.009 70.2017 183.443 68.694C183.878 67.188 183.011 65.6137 181.504 65.179L172.211 62.4943C170.705 62.0596 169.131 62.9274 168.696 64.4333Z" fill="#FFD00D" fill-opacity="1.000000" fill-rule="nonzero"/>
		<path id="path428" d="M169.698 64.7253C169.424 65.6754 169.973 66.6728 170.925 66.9475L180.218 69.6309C181.167 69.9072 182.165 69.3562 182.441 68.4061C182.572 67.945 182.52 67.4594 182.287 67.0407C182.056 66.6205 181.675 66.3163 181.215 66.1823L171.92 63.4989C170.971 63.2242 169.973 63.7736 169.698 64.7253ZM180.715 71.7894C180.358 71.7894 179.997 71.7403 179.639 71.6373L170.346 68.9523C168.288 68.3587 167.098 66.2019 167.691 64.1464C168.287 62.0894 170.443 60.9006 172.499 61.4925L181.794 64.1775C182.789 64.4653 183.613 65.1226 184.115 66.0318C184.616 66.9393 184.733 67.9875 184.446 68.985C183.955 70.684 182.398 71.7894 180.715 71.7894Z" fill="#6D184E" fill-opacity="1.000000" fill-rule="nonzero"/>
		<path id="path432" d="M203.679 111.785C203.244 113.293 204.111 114.866 205.617 115.301L214.91 117.985C216.416 118.42 217.99 117.552 218.426 116.046C218.86 114.54 217.992 112.967 216.486 112.53L207.194 109.846C205.687 109.411 204.113 110.279 203.679 111.785Z" fill="#0DF4FF" fill-opacity="1.000000" fill-rule="nonzero"/>
		<path id="path436" d="M204.682 112.075C204.406 113.026 204.956 114.024 205.907 114.298L215.2 116.982C216.151 117.259 217.147 116.706 217.422 115.755C217.697 114.806 217.147 113.808 216.196 113.533L206.903 110.849C205.954 110.574 204.956 111.124 204.682 112.075ZM215.696 119.141C215.34 119.141 214.979 119.092 214.62 118.989L205.327 116.303C203.271 115.71 202.082 113.552 202.675 111.496C203.271 109.439 205.427 108.253 207.481 108.843L216.775 111.527C218.832 112.122 220.022 114.28 219.429 116.335C218.938 118.033 217.382 119.141 215.696 119.141Z" fill="#6D184E" fill-opacity="1.000000" fill-rule="nonzero"/>
		<path id="path440" d="M221.979 158.542C223.044 159.693 224.839 159.763 225.992 158.699L233.094 152.132C234.244 151.067 234.313 149.272 233.25 148.119C232.186 146.968 230.389 146.899 229.237 147.963L222.136 154.531C220.986 155.596 220.916 157.391 221.979 158.542Z" fill="#FFD52B" fill-opacity="1.000000" fill-rule="nonzero"/>
		<path id="path444" d="M231.163 148.252C230.711 148.252 230.282 148.419 229.947 148.729L222.846 155.296C222.119 155.968 222.074 157.107 222.748 157.833C223.419 158.561 224.557 158.605 225.283 157.933L232.385 151.366C233.111 150.693 233.156 149.555 232.485 148.829C232.159 148.476 231.716 148.271 231.236 148.254C231.212 148.252 231.188 148.252 231.163 148.252ZM224.065 160.495C223.021 160.495 221.979 160.077 221.215 159.251C219.762 157.68 219.857 155.218 221.429 153.764L228.53 147.196C229.292 146.492 230.28 146.126 231.316 146.168C232.354 146.209 233.312 146.649 234.017 147.411C235.47 148.984 235.373 151.444 233.803 152.898L226.701 159.465C225.955 160.154 225.01 160.495 224.065 160.495Z" fill="#6D184E" fill-opacity="1.000000" fill-rule="nonzero"/>
		<path id="path448" d="M202.95 91.6726C203.173 93.2244 204.61 94.3036 206.163 94.0807L215.738 92.71C217.288 92.4871 218.367 91.0475 218.145 89.4974C217.922 87.9439 216.484 86.8664 214.933 87.0892L205.356 88.4601C203.805 88.6829 202.728 90.1208 202.95 91.6726Z" fill="#FFD52B" fill-opacity="1.000000" fill-rule="nonzero"/>
		<path id="path452" d="M215.339 88.1033C215.253 88.1033 215.167 88.11 215.08 88.1235L205.506 89.4948C204.524 89.6345 203.843 90.5464 203.982 91.5258C204.052 92.0003 204.299 92.4193 204.683 92.707C205.066 92.9948 205.539 93.1158 206.014 93.0469L215.59 91.6755C216.569 91.5359 217.252 90.6239 217.112 89.6446C217.043 89.17 216.796 88.7511 216.411 88.4617C216.098 88.2278 215.725 88.1033 215.339 88.1033ZM205.751 95.1536C204.918 95.1536 204.108 94.886 203.431 94.3779C202.602 93.7553 202.062 92.8483 201.916 91.8203C201.613 89.7035 203.089 87.7314 205.209 87.4268L214.783 86.0555C215.81 85.9108 216.833 86.1699 217.663 86.7925C218.492 87.415 219.03 88.322 219.177 89.3484C219.481 91.4669 218.004 93.439 215.886 93.7418L206.31 95.1132C206.123 95.1401 205.937 95.1536 205.751 95.1536Z" fill="#6D184E" fill-opacity="1.000000" fill-rule="nonzero"/>
		<path id="path456" d="M140.769 146.002C141.858 147.129 143.656 147.159 144.783 146.07L151.735 139.344C152.863 138.254 152.894 136.458 151.803 135.33C150.714 134.204 148.916 134.173 147.789 135.264L140.835 141.988C139.71 143.078 139.678 144.875 140.769 146.002Z" fill="#FFD52B" fill-opacity="1.000000" fill-rule="nonzero"/>
		<path id="path460" d="M141.52 145.278C142.207 145.989 143.347 146.007 144.058 145.319L151.011 138.595C151.722 137.907 151.74 136.768 151.054 136.057C150.72 135.713 150.272 135.518 149.792 135.509C149.308 135.488 148.859 135.68 148.515 136.014L141.562 142.739C140.85 143.428 140.83 144.565 141.52 145.278ZM142.811 147.912C142.789 147.912 142.768 147.911 142.744 147.911C141.708 147.894 140.739 147.474 140.018 146.728C138.53 145.189 138.571 142.726 140.111 141.238L147.063 134.513C147.809 133.793 148.783 133.388 149.828 133.423C150.864 133.44 151.833 133.86 152.554 134.606C154.042 136.146 153.999 138.607 152.462 140.095L145.508 146.819C144.778 147.525 143.824 147.912 142.811 147.912Z" fill="#6D184E" fill-opacity="1.000000" fill-rule="nonzero"/>
		<path id="path464" d="M117.517 56.809C118.802 55.9097 119.113 54.1388 118.214 52.856L112.667 44.9325C111.767 43.6479 109.997 43.3359 108.712 44.2353C107.428 45.1346 107.116 46.9037 108.016 48.1884L113.563 56.1118C114.463 57.3964 116.232 57.7084 117.517 56.809Z" fill="#FFD52B" fill-opacity="1.000000" fill-rule="nonzero"/>
		<path id="path468" d="M110.337 44.7648C109.973 44.7648 109.617 44.8749 109.312 45.0899C108.919 45.3643 108.657 45.7767 108.573 46.2487C108.49 46.7205 108.597 47.1977 108.87 47.5892L114.419 55.5135C114.693 55.905 115.105 56.1671 115.578 56.251C116.051 56.3349 116.526 56.2283 116.918 55.9539L116.919 55.9539C117.312 55.6795 117.574 55.267 117.657 54.7952C117.74 54.3232 117.635 53.8461 117.36 53.4546L111.812 45.5303C111.537 45.1371 111.125 44.8749 110.653 44.7928C110.548 44.7736 110.442 44.7648 110.337 44.7648ZM115.897 58.3658C115.671 58.3658 115.442 58.3483 115.215 58.3064C114.194 58.1263 113.305 57.5601 112.709 56.7107L107.161 48.7864C106.566 47.937 106.338 46.9075 106.518 45.8851C106.697 44.8644 107.265 43.9731 108.114 43.3806C108.964 42.7846 109.995 42.5557 111.016 42.7357C112.036 42.9175 112.926 43.4837 113.521 44.3331L119.069 52.2574C119.664 53.1068 119.893 54.1362 119.713 55.1587C119.533 56.1794 118.966 57.069 118.116 57.6632C117.456 58.1246 116.687 58.3658 115.897 58.3658Z" fill="#6D184E" fill-opacity="1.000000" fill-rule="nonzero"/>
		<path id="path472" d="M151.273 279.705C100.401 279.705 59.1621 274.89 59.1621 268.95C59.1621 263.011 100.401 258.195 151.273 258.195C202.145 258.195 243.384 263.011 243.384 268.95C243.384 274.89 202.145 279.705 151.273 279.705Z" fill="#F2A40C" fill-opacity="1.000000" fill-rule="nonzero"/>
	</g>
</svg>
